Coordinates
version=1
nRows=13
nColumns=63
inDegrees=yes

Units are S.I. units (second, meters, Newtons, ...)
If the header above contains a line with 'inDegrees', this indicates whether rotational values are in degrees (yes) or radians (no).

endheader
time	pelvis_tilt	pelvis_list	pelvis_rotation	pelvis_tx	pelvis_ty	pelvis_tz	hip_flexion_r	hip_adduction_r	hip_rotation_r	knee_angle_r	knee_angle_r_beta	ankle_angle_r	subtalar_angle_r	mtp_angle_r	hip_flexion_l	hip_adduction_l	hip_rotation_l	knee_angle_l	knee_angle_l_beta	ankle_angle_l	subtalar_angle_l	mtp_angle_l	L5_S1_Flex_Ext	L5_S1_Lat_Bending	L5_S1_axial_rotation	L4_L5_Flex_Ext	L4_L5_Lat_Bending	L4_L5_axial_rotation	L3_L4_Flex_Ext	L3_L4_Lat_Bending	L3_L4_axial_rotation	L2_L3_Flex_Ext	L2_L3_Lat_Bending	L2_L3_axial_rotation	L1_L2_Flex_Ext	L1_L2_Lat_Bending	L1_L2_axial_rotation	L1_T12_Flex_Ext	L1_T12_Lat_Bending	L1_T12_axial_rotation	Abs_r3	Abs_r2	Abs_r1	Abs_t1	Abs_t2	neck_flexion	neck_bending	neck_rotation	arm_flex_r	arm_add_r	arm_rot_r	elbow_flex_r	pro_sup_r	wrist_flex_r	wrist_dev_r	arm_flex_l	arm_add_l	arm_rot_l	elbow_flex_l	pro_sup_l	wrist_flex_l	wrist_dev_l
3.866667	1.309159	4.937433	83.200203	0.146426	0.997333	0.418910	-6.704432	6.347204	9.404602	0.871000	0.015202	17.886311	-15.735735	0.000000	-5.150594	-6.002028	-10.185114	7.181079	0.125333	33.806082	12.523877	0.000000	-0.007055	0.601608	-0.195227	-0.013102	0.800139	-0.207429	-0.011591	1.462751	-0.207429	-0.008063	1.462751	-0.170824	-0.006551	1.226800	-0.158622	-0.004031	0.931891	-0.146420	-0.050394	6.805514	-1.085796	0.000000	0.000000	-5.553220	-5.475687	5.965123	37.852357	-37.587964	-24.243957	138.990382	86.839036	-5.136026	-4.260169	40.474149	-52.190967	-23.503474	137.835471	87.004232	-26.898537	-7.996481
3.883333	1.280744	4.881123	83.430894	0.145819	0.996891	0.420409	-6.598059	6.321957	9.198154	0.829523	0.014478	17.717673	-15.923642	0.000000	-4.878821	-6.011588	-9.847076	7.385749	0.128906	33.879076	12.455632	0.000000	-0.022832	0.623373	-0.347694	-0.042401	0.829086	-0.369425	-0.037510	1.515669	-0.369425	-0.026094	1.515669	-0.304232	-0.021202	1.271182	-0.282501	-0.013046	0.965604	-0.260770	-0.163085	7.051718	-1.933769	0.000000	0.000000	-5.057782	-5.796654	7.179715	33.215923	-33.498125	-24.002778	136.807695	85.292759	-4.400194	-5.345470	31.939157	-49.362678	-27.420296	137.225258	85.740436	-24.916542	-8.361472
3.900000	1.312643	4.789171	83.599962	0.145105	0.996376	0.421650	-6.483372	6.344544	9.141261	0.776506	0.013553	17.657430	-16.065142	0.000000	-4.613000	-6.065564	-9.489735	7.597791	0.132606	33.938765	12.248350	0.000000	-0.036930	0.657768	-0.462526	-0.068584	0.874831	-0.491434	-0.060673	1.599296	-0.491434	-0.042208	1.599296	-0.404710	-0.034294	1.341319	-0.375802	-0.021102	1.018882	-0.346894	-0.263790	7.440798	-2.572430	0.000000	0.000000	-4.299542	-6.253962	8.260314	29.139805	-29.752823	-23.343903	133.844164	83.078177	-4.142801	-6.384795	24.211285	-45.968761	-30.847559	135.697769	84.287737	-22.774103	-7.927548
3.916667	1.389847	4.640877	83.696823	0.144324	0.995779	0.422605	-6.336550	6.403517	9.228474	0.715168	0.012482	17.706447	-16.150300	0.000000	-4.332382	-6.152461	-9.143333	7.815099	0.136399	33.970523	11.912273	0.000000	-0.046897	0.702368	-0.532592	-0.087092	0.934149	-0.565879	-0.077047	1.707738	-0.565879	-0.053598	1.707738	-0.466018	-0.043548	1.432269	-0.432731	-0.026797	1.087968	-0.399444	-0.334979	7.945328	-2.962116	0.000000	0.000000	-3.276420	-6.808158	9.152908	25.461360	-26.524847	-22.551609	130.188949	80.582366	-4.401703	-7.221634	17.537385	-42.089814	-33.713132	133.140625	82.780910	-20.511965	-6.888537
3.933333	1.521638	4.434062	83.697957	0.143450	0.995120	0.423253	-6.158108	6.501347	9.467300	0.649254	0.011332	17.842591	-16.171015	0.000000	-4.045769	-6.276574	-8.839615	8.024530	0.140054	33.986405	11.465005	0.000000	-0.053464	0.759196	-0.554245	-0.099287	1.009731	-0.588885	-0.087836	1.845910	-0.588885	-0.061104	1.845910	-0.484964	-0.049646	1.548153	-0.450324	-0.030549	1.175995	-0.415684	-0.381886	8.588179	-3.082544	0.000000	0.000000	-2.019821	-7.449295	9.858637	22.234110	-23.946540	-21.678499	125.885348	78.188617	-5.112570	-7.651485	11.975707	-37.884361	-36.122873	129.484586	81.309089	-18.127642	-5.427397
3.950000	1.677637	4.169820	83.610385	0.142561	0.994395	0.423606	-5.943065	6.613075	9.832377	0.582203	0.010161	18.059192	-16.127436	0.000000	-3.748343	-6.415064	-8.611513	8.217860	0.143429	33.994650	10.960691	0.000000	-0.056003	0.821174	-0.533052	-0.104003	1.092161	-0.566367	-0.092007	1.996602	-0.566367	-0.064005	1.996602	-0.466420	-0.052004	1.674537	-0.433104	-0.032000	1.271998	-0.399789	-0.400022	9.289280	-2.964673	0.000000	0.000000	-0.605131	-8.053139	10.307084	19.325974	-22.031919	-20.979138	121.017138	76.192762	-6.050996	-7.448223	7.710418	-33.588066	-37.946008	124.661056	80.046512	-15.840014	-3.604130
3.966667	1.830658	3.859323	83.444328	0.141756	0.993589	0.423688	-5.696731	6.718004	10.313609	0.516675	0.009018	18.356720	-16.036893	0.000000	-3.445462	-6.548322	-8.482468	8.387919	0.146397	34.012996	10.446544	0.000000	-0.054912	0.880592	-0.479600	-0.101977	1.171188	-0.509575	-0.090215	2.141072	-0.509575	-0.062759	2.141072	-0.419650	-0.050991	1.795703	-0.389675	-0.031377	1.364037	-0.359700	-0.392230	9.961434	-2.667389	0.000000	0.000000	0.884694	-8.492373	10.436208	16.745452	-20.714242	-20.432599	115.653275	74.619366	-7.076224	-6.512245	4.816308	-29.519394	-38.854044	118.668468	78.754570	-13.918620	-1.546606
3.983333	1.947723	3.531932	83.224270	0.141118	0.992700	0.423579	-5.438781	6.788768	10.873059	0.455122	0.007943	18.743605	-15.911538	0.000000	-3.154540	-6.648885	-8.459158	8.527363	0.148831	34.044022	9.957299	0.000000	-0.053878	0.929072	-0.409535	-0.100057	1.235666	-0.435131	-0.088516	2.258947	-0.435131	-0.061577	2.258947	-0.358343	-0.050031	1.894565	-0.332747	-0.030786	1.439133	-0.307151	-0.384846	10.509853	-2.277712	0.000000	0.000000	2.390642	-8.683574	10.214260	14.602942	-19.823122	-19.831930	109.818575	73.519604	-8.067383	-4.985502	3.173435	-25.957352	-38.852208	111.622155	77.560564	-12.385118	0.614030
4.000000	1.987834	3.210759	82.970296	0.140759	0.991703	0.423336	-5.181568	6.791348	11.488232	0.400972	0.006998	19.229755	-15.767902	0.000000	-2.891339	-6.682748	-8.557683	8.623114	0.150502	34.094766	9.555391	0.000000	-0.055410	0.957700	-0.334729	-0.102902	1.273740	-0.355649	-0.091033	2.328551	-0.355649	-0.063328	2.328551	-0.292888	-0.051454	1.952941	-0.271967	-0.031661	1.483477	-0.251047	-0.395789	10.833688	-1.861662	0.000000	0.000000	3.898338	-8.615342	9.588535	12.931457	-19.133878	-19.109938	103.550432	73.116408	-8.900203	-3.054805	2.478967	-23.086945	-38.311918	103.749584	76.952596	-11.211331	2.742231
4.016667	1.891987	2.914367	82.671749	0.140834	0.990550	0.422906	-4.938267	6.670908	12.181266	0.354915	0.006194	19.842044	-15.636492	0.000000	-2.728446	-6.558905	-8.407097	8.536253	0.148986	34.045368	8.828955	0.000000	-0.058278	0.953550	-0.245314	-0.108229	1.268221	-0.260647	-0.095746	2.318461	-0.260647	-0.066606	2.318461	-0.214650	-0.054117	1.944479	-0.199318	-0.033300	1.477049	-0.183986	-0.416277	10.786747	-1.364366	0.000000	0.000000	5.387935	-8.176641	8.347744	11.541283	-18.630129	-18.074786	96.944185	73.055950	-9.708692	-1.053441	2.638829	-20.917142	-37.371152	95.319347	77.233098	-10.557477	4.778445
4.033333	1.710879	2.679222	82.308296	0.141211	0.989232	0.422434	-4.743061	6.466241	12.938714	0.319883	0.005583	20.545095	-15.525639	0.000000	-2.671978	-6.339028	-8.341780	8.343223	0.145617	34.032755	8.169653	0.000000	-0.074626	0.930635	-0.159458	-0.138588	1.237744	-0.169424	-0.122603	2.262745	-0.169424	-0.085290	2.262745	-0.139525	-0.069298	1.897750	-0.129559	-0.042641	1.441553	-0.119593	-0.533047	10.527524	-0.886856	0.000000	0.000000	7.023533	-7.665912	6.935954	10.828112	-18.142473	-16.283194	89.962398	73.408065	-10.258393	0.834469	2.740535	-19.813521	-40.441048	87.421465	79.940082	-10.395631	6.372922
4.050000	1.450000	2.491955	81.884371	0.141785	0.987726	0.421890	-4.587799	6.186568	13.739996	0.294110	0.005133	21.313129	-15.448351	0.000000	-2.722487	-6.032302	-8.411237	8.015323	0.139894	34.087174	7.686906	0.000000	-0.102620	0.889852	-0.068207	-0.190576	1.183504	-0.072470	-0.168595	2.163587	-0.072470	-0.117285	2.163587	-0.059681	-0.095293	1.814587	-0.055418	-0.058637	1.378381	-0.051155	-0.733006	10.066188	-0.379345	0.000000	0.000000	8.835798	-7.059572	5.269839	10.629914	-17.735384	-13.581473	82.719754	73.793541	-10.675610	2.281167	3.391554	-19.136610	-39.571152	78.697691	80.620909	-10.365908	7.085604
4.066667	1.210280	2.287098	81.487375	0.142331	0.985860	0.421349	-4.413902	5.946522	14.466786	0.275898	0.004815	22.095245	-15.412191	0.000000	-2.697301	-5.792386	-8.652099	7.786356	0.135898	34.352673	7.501920	0.000000	-0.135692	0.846696	0.011282	-0.251994	1.126105	0.011987	-0.222928	2.058656	0.011987	-0.155082	2.058656	0.009872	-0.126004	1.726582	0.009167	-0.077534	1.311532	0.008462	-0.969234	9.577991	0.062747	0.000000	0.000000	10.806454	-6.419392	3.462520	10.684274	-17.785756	-14.753750	76.347246	77.482990	-11.208291	3.499919	4.463510	-18.713447	-34.984556	69.512369	79.556966	-10.432290	6.997848
